<?xml version="1.0" encoding="iso-8859-1"?>
<!-- Generator: Adobe Illustrator 19.0.0, SVG Export Plug-In . SVG Version: 6.00 Build 0)  -->
<svg version="1.1" id="Layer_1" xmlns="http://www.w3.org/2000/svg" xmlns:xlink="http://www.w3.org/1999/xlink" x="0px" y="0px"
	 viewBox="0 0 512 512" style="enable-background:new 0 0 512 512;" xml:space="preserve">
<path style="fill:#5D5F66;" d="M509.187,253.187c0,46.249-12.378,89.684-34.208,126.931c-10.915,19.13-24.418,36.571-39.947,52.099
	c-15.528,15.529-32.971,29.032-52.099,39.947c-37.248,21.831-80.683,34.209-126.932,34.209
	c-139.872,0-253.187-113.315-253.187-253.187c0-69.992,28.357-133.233,74.156-179.031S186.008,0,256,0
	c10.915,0,21.718,0.675,32.295,2.138c57.051,7.202,108.139,33.421,146.736,72.018c0.9,0.9,1.688,1.688,2.476,2.588
	C481.843,122.317,509.187,184.433,509.187,253.187z"/>
<path style="fill:#55575C;" d="M382.931,472.165c19.13-10.915,36.571-24.418,52.099-39.947
	c15.529-15.528,29.032-32.971,39.947-52.099c21.83-37.248,34.208-80.682,34.208-126.931c0-68.754-27.344-130.869-71.68-176.443
	c-0.788-0.9-1.575-1.688-2.476-2.588C396.434,35.559,345.347,9.34,288.295,2.138C277.718,0.675,266.915,0,256,0v506.374
	C302.249,506.374,345.684,493.996,382.931,472.165z"/>
<path style="fill:#757880;" d="M391.033,270.066c-27.923,0-50.637-22.715-50.637-50.637s22.715-50.637,50.637-50.637
	c27.923,0,50.637,22.715,50.637,50.637S418.956,270.066,391.033,270.066z"/>
<circle style="fill:#979797;" cx="222.242" cy="84.396" r="16.879"/>
<circle style="fill:#757880;" cx="289.758" cy="286.945" r="16.879"/>
<circle style="fill:#979797;" cx="87.209" cy="219.429" r="16.879"/>
<g>
	<path style="fill:#757880;" d="M474.978,380.118c-10.915,19.13-24.418,36.571-39.947,52.099
		c-15.528,15.529-32.971,29.032-52.099,39.947c-42.76-4.051-76.294-40.06-76.294-83.946c0-23.293,9.452-44.336,24.756-59.64
		s36.346-24.756,59.64-24.756c23.293,0,44.336,9.452,59.64,24.756C464.176,342.084,473.178,360.088,474.978,380.118z"/>
	<path style="fill:#757880;" d="M437.507,76.744c-4.164,12.828-11.253,24.193-20.592,33.533
		c-15.304,15.304-36.346,24.756-59.64,24.756c-46.586,0-84.396-37.809-84.396-84.396c0-18.117,5.739-34.771,15.416-48.499
		c57.051,7.202,108.139,33.421,146.736,72.018C435.931,75.056,436.719,75.844,437.507,76.744z"/>
</g>
<path style="fill:#DE8548;" d="M149.099,309.451c-9.318,0-16.879-7.555-16.879-16.879V157.538c0-9.324,7.561-16.879,16.879-16.879
	s16.879,7.555,16.879,16.879v135.033C165.978,301.895,158.417,309.451,149.099,309.451z"/>
<path style="fill:#D17343;" d="M165.978,292.571V157.538c0-9.324-7.561-16.879-16.879-16.879v168.791
	C158.417,309.451,165.978,301.895,165.978,292.571z"/>
<path style="fill:#86E4C6;" d="M182.857,241.934H132.22v-84.396c0-9.322,7.557-16.879,16.879-16.879h101.275
	c9.523,0,16.938,7.901,16.877,17.424C266.957,204.372,229.214,241.934,182.857,241.934z"/>
<path style="fill:#77CAB0;" d="M182.857,241.934c46.357,0,84.1-37.562,84.393-83.851c0.061-9.523-7.354-17.424-16.877-17.424
	H149.099v101.275H182.857z"/>
<path style="fill:#7F8189;" d="M149.099,512c-65.153,0-118.154-53.005-118.154-118.154s53-118.154,118.154-118.154
	s118.154,53.005,118.154,118.154S214.252,512,149.099,512z"/>
<path style="fill:#969AA4;" d="M267.253,393.846c0-65.149-53-118.154-118.154-118.154V512
	C214.252,512,267.253,458.995,267.253,393.846z"/>
<g>
</g>
<g>
</g>
<g>
</g>
<g>
</g>
<g>
</g>
<g>
</g>
<g>
</g>
<g>
</g>
<g>
</g>
<g>
</g>
<g>
</g>
<g>
</g>
<g>
</g>
<g>
</g>
<g>
</g>
</svg>
