<?xml version="1.0" encoding="iso-8859-1"?>
<!-- Generator: Adobe Illustrator 19.0.0, SVG Export Plug-In . SVG Version: 6.00 Build 0)  -->
<svg version="1.1" id="Capa_1" xmlns="http://www.w3.org/2000/svg" xmlns:xlink="http://www.w3.org/1999/xlink" x="0px" y="0px"
	 viewBox="0 0 480.002 480.002" style="enable-background:new 0 0 480.002 480.002;" xml:space="preserve">
<circle style="fill:#FFD54F;" cx="176.002" cy="192.001" r="176"/>
<path style="fill:#FAFAFA;" d="M176.002,176.001c-8.832,0-16-7.168-16-16s7.168-16,16-16h32c8.832,0,16-7.168,16-16s-7.168-16-16-16
	h-16v-16c0-8.832-7.168-16-16-16s-16,7.168-16,16v18.944c-18.592,6.624-32,24.224-32,45.056c0,26.464,21.536,48,48,48
	c8.832,0,16,7.168,16,16s-7.168,16-16,16h-32c-8.832,0-16,7.168-16,16c0,8.832,7.168,16,16,16h16v16c0,8.832,7.168,16,16,16
	s16-7.168,16-16v-18.944c18.592-6.624,32-24.224,32-45.056C224.002,197.537,202.466,176.001,176.002,176.001z"/>
<path style="fill:#2196F3;" d="M464.002,272.001h-96c-8.832,0-16,7.168-16,16s7.168,16,16,16h55.712L317.57,396.865l-118.4-59.2
	c-4.672-2.304-10.208-2.24-14.816,0.288l-176,96c-7.776,4.224-10.624,13.952-6.4,21.696c2.912,5.344,8.384,8.352,14.048,8.352
	c2.592,0,5.216-0.64,7.648-1.984l168.672-91.968l120.512,60.256c5.824,2.848,12.768,2.016,17.696-2.272l117.472-102.784v58.752
	c0,8.832,7.168,16,16,16s16-7.168,16-16v-96C480.002,279.169,472.834,272.001,464.002,272.001z"/>
<g>
</g>
<g>
</g>
<g>
</g>
<g>
</g>
<g>
</g>
<g>
</g>
<g>
</g>
<g>
</g>
<g>
</g>
<g>
</g>
<g>
</g>
<g>
</g>
<g>
</g>
<g>
</g>
<g>
</g>
</svg>
